<svg width="4119" height="4266" viewBox="0 0 4119 4266" fill="none" xmlns="http://www.w3.org/2000/svg">
<path d="M2685.93 2472.34L2604.42 2627.2H2604.42L2685.93 2472.34ZM2685.93 2472.34L2059.42 2142.6V738.79L2878.25 186.699L2881.9 184.239L2885.42 181.6C2888.26 179.471 2889.75 178.956 2890.16 178.819L2898.18 176.148L2900.03 175.324C2900.24 175.305 2900.47 175.283 2900.71 175.265C2902.55 175.12 2905.1 175 2908.42 175H3943.02V987.828L3161.29 1330.96L3056.62 1376.9V1759.06L3144.67 1809.47L3943.02 2266.54V3598.87L2993.76 4070.48L2983.8 4075.42L2974.55 4081.59C2972.66 4082.85 2967.45 4085.99 2957.56 4090.6H2059.42V3302.74L2691.71 2938.88L2779.42 2888.4V2521.55L2685.93 2472.34Z" stroke="#303A34" stroke-width="350"/>
<path d="M1432.09 2472.34L1513.6 2627.2H1513.6L1432.09 2472.34ZM1432.09 2472.34L2058.6 2142.6V738.79L1239.77 186.699L1236.12 184.239L1232.6 181.6C1229.76 179.471 1228.27 178.956 1227.86 178.819L1219.85 176.148L1217.99 175.324C1217.78 175.305 1217.56 175.283 1217.32 175.265C1215.47 175.12 1212.92 175 1209.6 175H175V987.828L956.736 1330.96L1061.4 1376.9V1759.06L973.349 1809.47L175 2266.54V3598.87L1124.26 4070.48L1134.22 4075.42L1143.47 4081.59C1145.36 4082.85 1150.58 4085.99 1160.46 4090.6H2058.6V3302.74L1426.31 2938.88L1338.6 2888.4V2521.55L1432.09 2472.34Z" stroke="#303A34" stroke-width="350"/>
</svg>
